<?xml version="1.0" encoding="utf-8"?>
<!-- Generator: Adobe Illustrator 22.1.0, SVG Export Plug-In . SVG Version: 6.00 Build 0)  -->
<svg version="1.1" id="Layer_1" xmlns="http://www.w3.org/2000/svg" xmlns:xlink="http://www.w3.org/1999/xlink" x="0px" y="0px"
	 viewBox="0 0 500 500" style="enable-background:new 0 0 500 500;" xml:space="preserve">
<style type="text/css">
	.st0{opacity:0.15;}
	.st1{fill:#7D9E7D;}
	.st2{fill:none;stroke:#475649;stroke-width:0.25;stroke-miterlimit:10;stroke-dasharray:14.773,6.8941;}
	.st3{fill:none;stroke:#475649;stroke-width:0.25;stroke-miterlimit:10;}
	.st4{fill:#DBCDA1;}
	.st5{fill:#731989;}
	.st6{fill:#A0892A;}
	.st7{fill:#917040;}
	.st8{fill:#8E1B0C;}
	.st9{fill:#23190B;}
	.st10{fill:#BC9153;}
	.st11{fill:#0A6D0A;}
	.st12{fill:#A8824A;}
	.st13{fill:#994C2F;}
	.st14{fill:#35323F;}
	.st15{fill:#2F1354;}
	.st16{fill:#BAB9B6;}
	.st17{fill:#35488E;}
	.st18{fill:#726E6A;}
	.st19{fill:#2C448C;}
</style>
<g class="st0">
	<path d="M165.2,301l-26.5-16.8c-3.4-2.1-4.4-6.6-2.2-10l7-11c2.1-3.4,6.6-4.4,10-2.2l26.5,16.8c3.4,2.1,4.4,6.6,2.2,10l-7,11
		C173.1,302.2,168.6,303.2,165.2,301z"/>
	<circle cx="134" cy="265" r="7.1"/>
	<path d="M172.7,301.2l18.9,12.7c0,0,2.6,2.2,5.8,0s3.6-5.9,3.6-5.9l-17.6-24.2L172.7,301.2z"/>
</g>
<g class="st0">
	<g>
		<path d="M212.1,142.3l-21-20.5c0,0,3-5.3-6.4-13.8s-26.5-24.2-26.5-24.2s-4.4-4.8-12.8-0.2L131.1,98c0,0-4.6,8,3.1,15l17.2,28.5
			l5.6,5.5l-5.1-18.6l9.1,7.9c0,0,3.3,5.7,9.7,4.3l14.2,13.3L212.1,142.3z"/>
		<circle cx="132.6" cy="83.7" r="9.5"/>
	</g>
	<g>
		<path d="M145.2,207.6L126,176.5c0,0-5.7,2.1-12.6-8.6c-6.8-10.7-19.6-30.1-19.6-30.1s-4-5.1,1.9-12.7l16.5-11.7
			c0,0,8.6-3.2,14.2,5.5l25.3,21.6l4.5,6.4l-17.5-8.1l6.3,10.3c0,0,5.1,4.2,2.7,10.3l17,25.1L145.2,207.6z"/>
		<circle cx="97.9" cy="112.6" r="9.5"/>
	</g>
</g>
<g class="st0">
	<path d="M327.7,150.2l-33.2-21c-4.2-2.7-5.5-8.3-2.8-12.5l8.7-13.8c2.7-4.2,8.3-5.5,12.5-2.8l33.2,21c4.2,2.7,5.5,8.3,2.8,12.5
		l-8.7,13.8C337.6,151.6,332,152.9,327.7,150.2z"/>
	<circle cx="288.7" cy="105.2" r="8.9"/>
	<path d="M337.2,150.4l23.6,15.9c0,0,3.2,2.8,7.2,0c4-2.8,4.5-7.3,4.5-7.3l-22-30.3L337.2,150.4z"/>
</g>
<g id="distancias-a">
	<circle id="intimate-space" class="st1" cx="250" cy="250" r="50"/>
	<circle id="personal-space" class="st2" cx="250" cy="250" r="100"/>
	<circle id="social-space" class="st3" cx="250" cy="250" r="150"/>
</g>
<g id="colega">
	<circle class="st4" cx="328.8" cy="131.9" r="5"/>
	<circle class="st4" cx="365.5" cy="174.4" r="5"/>
	<path class="st5" d="M378.4,149.5c-1.9-4.3-19.2-24.3-23.2-26.8c-10.2-6-29.1,5-29.1,5l3.6,9.1c0,0,9.4-1.9,9.4-1.8
		c10.6,15.8,10.6,15.8,24.8,28.6c-0.4,1.3-3.1,9.1-3.1,9.1l8.5,4.9C369.3,177.6,382.9,160.4,378.4,149.5z"/>
	<g>
		<path class="st4" d="M349.1,140.7c-0.7,3,0,6.3,2.2,8.8s5.3,3.7,8.4,3.4c-2-1.7-4-3.6-5.8-5.7
			C352.1,145.1,350.5,142.9,349.1,140.7z"/>
		<path class="st6" d="M366.4,136.3c-3.6-4.2-9.9-4.6-14.1-1c-1.7,1.5-2.7,3.3-3.2,5.3c1.4,2.3,3,4.4,4.8,6.5s3.7,4,5.8,5.7
			c2-0.2,4.1-1,5.7-2.4C369.6,146.8,370.1,140.5,366.4,136.3z"/>
	</g>
</g>
<g id="hijo-mayor">
	<circle class="st7" cx="218.2" cy="307.2" r="4"/>
	<circle class="st7" cx="190" cy="272.3" r="4"/>
	<path class="st8" d="M179,291.8c1.4,3.5,14.7,19.9,17.8,22c8,5.1,23.4-3.2,23.4-3.2l-2.6-7.4l-7.6,1.2c-8-12.9-8-12.9-19.1-23.6
		c0.4-1.1,2.8-7.2,2.8-7.2l-6.7-4.1C187,269.6,175.7,283,179,291.8z"/>
	<g>
		<path class="st7" d="M202.1,299.7c0.6-2.4,0.2-5-1.5-7.1s-4.1-3.1-6.6-3c1.6,1.4,3.1,3,4.4,4.7
			C199.9,296.1,201.1,297.9,202.1,299.7z"/>
		<path class="st9" d="M188.2,302.7c2.8,3.4,7.8,4,11.3,1.2c1.4-1.1,2.3-2.6,2.7-4.2c-1.1-1.8-2.3-3.6-3.7-5.3
			c-1.4-1.7-2.9-3.3-4.4-4.7c-1.6,0.1-3.3,0.6-4.7,1.8C186,294.2,185.4,299.3,188.2,302.7z"/>
	</g>
</g>
<g id="mama-hijo-menor">
	<g id="mama-hijo-menor_1_">
		<circle class="st10" cx="309.7" cy="285.3" r="3.5"/>
		<circle class="st10" cx="281.9" cy="313.1" r="3.5"/>
		<path class="st11" d="M299.9,320.8c2.9-1.5,16-14.6,17.5-17.5c3.7-7.4-4.9-20.1-4.9-20.1l-6.2,3c0,0,1.8,6.5,1.7,6.5
			c-10.5,8.2-10.5,8.2-18.8,18.8c-1-0.2-6.5-1.7-6.5-1.7l-3,6.2C279.8,315.9,292.5,324.5,299.9,320.8z"/>
		<g>
			<path class="st10" d="M304.6,300c-2.1-0.3-4.4,0.3-6,2c-1.6,1.6-2.3,3.9-2,6c1.1-1.5,2.3-2.9,3.7-4.3
				C301.7,302.3,303.1,301.1,304.6,300z"/>
			<path d="M308.5,311.8c2.7-2.7,2.7-7.2,0-9.9c-1.1-1.1-2.5-1.7-3.9-2c-1.5,1.1-2.9,2.3-4.3,3.7c-1.4,1.4-2.6,2.8-3.7,4.3
				c0.2,1.4,0.9,2.8,2,3.9C301.4,314.6,305.8,314.6,308.5,311.8z"/>
		</g>
		<circle class="st12" cx="312.9" cy="222.4" r="5"/>
		<circle class="st12" cx="312.9" cy="278.5" r="5"/>
		<path class="st13" d="M338.8,268.2c1.4-4.5,1.4-30.9,0-35.4c-3.7-11.2-25.2-15.3-25.2-15.3l-3.3,9.3l8.3,4.8
			c-2.4,18.9-2.4,18.9,0,37.9c-1.2,0.7-8.3,4.8-8.3,4.8l3.3,9.3C313.6,283.5,335.1,279.4,338.8,268.2z"/>
		<path class="st12" d="M322.6,242.3c-2.5,1.8-4.1,4.7-4.1,8.1c0,3.3,1.6,6.2,4.1,8.1c-0.4-2.6-0.6-5.3-0.6-8.1
			C321.9,247.7,322.1,245,322.6,242.3z"/>
	</g>
	<path class="st14" d="M339.9,246.8c-0.7,0-1.4,0.2-1.9,0.6c-1.3-4-5.1-7-9.5-7c-2.2,0-4.3,0.7-5.9,1.9c-0.4,2.6-0.6,5.3-0.6,8.1
		c0,2.7,0.2,5.4,0.6,8.1c1.7,1.2,3.7,1.9,5.9,1.9c4.5,0,8.3-3,9.6-7.1c0.5,0.3,1.2,0.5,1.9,0.5c1.9,0,3.5-1.6,3.5-3.5
		S341.8,246.8,339.9,246.8z"/>
</g>
<g id="abuelos">
	<circle class="st7" cx="159.4" cy="234.4" r="4.5"/>
	<circle class="st7" cx="180.2" cy="188.4" r="4.5"/>
	<path class="st15" d="M155,187.2c-2.8,3.2-12.6,24.9-13.1,29.1c-1.1,10.6,15,22,15,22l6.1-6.4l-5.1-7c8.9-14.6,8.9-14.6,14-31.1
		c1.2-0.2,8.6-0.9,8.6-0.9l0.7-8.8C181.4,184,162.3,179.4,155,187.2z"/>
	<path class="st7" d="M158.8,214.4c2.7-0.6,5.1-2.4,6.3-5.1c1.2-2.7,1-5.7-0.4-8.1c-0.6,2.3-1.4,4.6-2.4,6.8
		C161.3,210.3,160.1,212.4,158.8,214.4z"/>
	<path class="st16" d="M160.7,197.4c-3.6-1.6-7.6-0.7-10.2,2c-0.8-1.4-2.5-2.1-4-1.5c-1.7,0.6-2.5,2.5-1.9,4.2
		c0.6,1.5,2.1,2.3,3.6,2.1c-0.6,3.9,1.4,7.9,5.2,9.6c1.8,0.8,3.8,1,5.6,0.6c1.3-2,2.5-4.1,3.5-6.4c1-2.3,1.8-4.5,2.4-6.8
		C163.9,199.6,162.5,198.2,160.7,197.4z"/>
	<circle class="st10" cx="185.4" cy="181.6" r="5"/>
	<circle class="st10" cx="238" cy="161.8" r="5"/>
	<path class="st17" d="M219.1,141.2c-4.7,0.3-29.4,9.6-33.1,12.5c-9.1,7.5-5.4,29-5.4,29l9.8-0.3l1.5-9.5
		c18.5-4.4,18.5-4.4,35.4-13.4c1.1,0.8,7.4,6.1,7.4,6.1l7.5-6.3C242.3,159.4,230.9,140.7,219.1,141.2z"/>
	<g id="cabeza">
		<circle id="pelao" class="st10" cx="206.1" cy="157.3" r="9.5"/>
		<path id="pelaes" class="st18" d="M202.6,147.7c-5.2,2-7.7,7.7-5.8,12.9c0.8,2.1,2.2,3.7,3.9,4.8c2.6-0.6-4.4-11.2,3.6-13.8
			c8-2.2,9.2,9.4,11.5,8c0.5-2,0.5-4.1-0.3-6.2C213.6,148.5,207.8,145.9,202.6,147.7z"/>
	</g>
</g>
<g class="st0">
	<path d="M203.2,239.2l-32.4-22.9c-4.1-2.9-5.1-8.7-2.2-12.8l9.5-13.5c2.9-4.1,8.7-5.1,12.8-2.2l32.4,22.9c4.1,2.9,5.1,8.7,2.2,12.8
		L216,237C213.1,241.1,207.3,242.1,203.2,239.2z"/>
	<circle cx="166" cy="191.7" r="9"/>
	<path d="M212.7,239.8l23,17.3c0,0,3.1,3,7.3,0.4c4.2-2.6,14.2-15.6,14.2-15.6l-30-23.3L212.7,239.8z"/>
</g>
<g class="st0">
	<path d="M284.3,255.2l-36.9-14.8c-4.7-1.9-7-7.2-5.1-11.9l6.2-15.3c1.9-4.7,7.2-7,11.9-5.1l36.9,14.8c4.7,1.9,7,7.2,5.1,11.9
		l-6.2,15.3C294.3,254.8,289,257.1,284.3,255.2z"/>
	<circle cx="237.1" cy="217.6" r="9"/>
	<path d="M293.6,253.7l26.4,11.5c0,0,3.7,2.2,7.2-1.3s10.2-18.4,10.2-18.4l-34.6-15.8L293.6,253.7z"/>
</g>
<g class="st0">
	<path d="M280.8,301l-16.3-15.9c-2.1-2-2.1-5.4-0.1-7.5l6.6-6.8c2-2.1,5.4-2.1,7.5-0.1l16.3,15.9c2.1,2,2.1,5.4,0.1,7.5l-6.6,6.8
		C286.2,303,282.9,303.1,280.8,301z"/>
	<circle cx="264" cy="270.8" r="5.2"/>
	<path d="M286.1,302.3l11.5,11.9c0,0,1.5,2,4.1,0.9s8.5-6.7,8.5-6.7l-13.9-16.8L286.1,302.3z"/>
</g>
<g id="padre">
	<circle class="st7" cx="221.9" cy="261" r="5"/>
	<circle class="st7" cx="278.1" cy="261" r="5"/>
	<path class="st19" d="M267.7,235c-4.5-1.4-30.9-1.4-35.4,0c-11.2,3.7-15.3,25.2-15.3,25.2l9.3,3.3l4.8-8.3
		c18.9,2.4,18.9,2.4,37.9,0c0.7,1.2,4.8,8.3,4.8,8.3l9.3-3.3C283,260.3,278.9,238.8,267.7,235z"/>
	<g>
		<path class="st7" d="M241.9,251.3c1.8,2.5,4.7,4.1,8.1,4.1c3.3,0,6.2-1.6,8.1-4.1c-2.6,0.4-5.3,0.6-8.1,0.6
			C247.2,251.9,244.5,251.7,241.9,251.3z"/>
		<path d="M249.9,235.4c-5.5,0-10,4.5-10,10c0,2.2,0.7,4.3,1.9,5.9c2.6,0.4,5.3,0.6,8.1,0.6c2.7,0,5.4-0.2,8.1-0.6
			c1.2-1.7,1.9-3.7,1.9-5.9C259.9,239.9,255.4,235.4,249.9,235.4z"/>
	</g>
</g>
</svg>
